<svg xmlns="http://www.w3.org/2000/svg" version="1.1" xmlns:xlink="http://www.w3.org/1999/xlink" xmlns:svgjs="http://svgjs.dev/svgjs" width="128" height="128" viewBox="0 0 128 128"><g transform="matrix(0.8046875,0,0,0.8046875,12.333870967741937,12.333870967741937)"><svg viewBox="0 0 155 155" data-background-color="#ffffff" preserveAspectRatio="xMidYMid meet" height="128" width="128" xmlns="http://www.w3.org/2000/svg" xmlns:xlink="http://www.w3.org/1999/xlink"><g id="tight-bounds" transform="matrix(1,0,0,1,0.25,0.25)"><svg viewBox="0 0 154.5 154.5" height="154.5" width="154.5"><g><svg></svg></g><g><svg viewBox="0 0 154.5 154.5" height="154.5" width="154.5"><g transform="matrix(1,0,0,1,53.48166792134832,43.83165)"><svg viewBox="0 0 47.53666415730337 66.8367" height="66.8367" width="47.53666415730337"><g><svg viewBox="0 0 47.53666415730337 66.8367" height="66.8367" width="47.53666415730337"><g><svg viewBox="0 0 47.53666415730337 66.8367" height="66.8367" width="47.53666415730337"><g id="textblocktransform"><svg viewBox="0 0 47.53666415730337 66.8367" height="66.8367" width="47.53666415730337" id="textblock"><g><svg viewBox="0 0 47.53666415730337 66.8367" height="66.8367" width="47.53666415730337"><g transform="matrix(1,0,0,1,0,0)"><svg width="47.53666415730337" viewBox="-0.10000000000000009 -42 32.650000000000006 45.5" height="66.8367" data-palette-color="#000000"><path d="M3.65-0.55L2.9-11.75 4.75-11.75Q5.1-9.5 6.08-7.7 7.05-5.9 8.53-4.65 10-3.4 11.93-2.73 13.85-2.05 16.1-2.05L16.1-2.05Q19.8-2.05 21.95-3.8 24.1-5.55 24.1-8.55L24.1-8.55Q24.1-9.8 23.68-10.85 23.25-11.9 22.25-12.88 21.25-13.85 19.58-14.8 17.9-15.75 15.35-16.85L15.35-16.85Q12.25-18.2 10.15-19.45 8.05-20.7 6.8-22.05 5.55-23.4 5.03-24.93 4.5-26.45 4.5-28.4L4.5-28.4Q4.5-30.7 5.33-32.65 6.15-34.6 7.65-36.02 9.15-37.45 11.2-38.23 13.25-39 15.7-39L15.7-39Q17.9-39 19.8-38.3 21.7-37.6 23.65-36.05L23.65-36.05 24.95-38.3 26.1-38.3 26.65-28.35 24.8-28.35Q23.6-32.45 21.33-34.45 19.05-36.45 15.85-36.45L15.85-36.45Q12.8-36.45 11-34.95 9.2-33.45 9.2-30.9L9.2-30.9Q9.2-29.7 9.6-28.73 10-27.75 10.9-26.88 11.8-26 13.25-25.13 14.7-24.25 16.85-23.3L16.85-23.3Q20.55-21.65 23-20.23 25.45-18.8 26.9-17.38 28.35-15.95 28.95-14.38 29.55-12.8 29.55-10.85L29.55-10.85Q29.55-8.35 28.55-6.25 27.55-4.15 25.75-2.65 23.95-1.15 21.45-0.33 18.95 0.5 15.95 0.5L15.95 0.5Q13.1 0.5 10.83-0.3 8.55-1.1 6.2-3L6.2-3 4.8-0.55 3.65-0.55Z" opacity="1" transform="matrix(1,0,0,1,0,0)" fill="#000000" class="wordmark-text-0" data-fill-palette-color="primary" id="text-0"></path></svg></g></svg></g></svg></g></svg></g></svg></g></svg></g><g><path d="M0 154.5v-154.5h154.5v154.5zM149.15 149.15v-143.8h-143.8v143.8z" fill="#000000" fill-rule="nonzero" stroke="none" stroke-width="1" stroke-linecap="butt" stroke-linejoin="miter" stroke-miterlimit="10" stroke-dasharray="" stroke-dashoffset="0" font-family="none" font-weight="none" font-size="none" text-anchor="none" style="mix-blend-mode: normal" data-fill-palette-color="tertiary"></path></g></svg></g><defs><mask><rect width="154.5" height="154.5" fill="white"></rect><g transform="matrix(1,0,0,1,53.48166792134832,43.83165)" id="clone"><svg viewBox="0 0 47.53666415730337 66.8367" height="66.8367" width="47.53666415730337"><g><svg viewBox="0 0 47.53666415730337 66.8367" height="66.8367" width="47.53666415730337"><g><svg viewBox="0 0 47.53666415730337 66.8367" height="66.8367" width="47.53666415730337"><g id="SvgjsG1388"><svg viewBox="0 0 47.53666415730337 66.8367" height="66.8367" width="47.53666415730337" id="SvgjsSvg1387"><g><svg viewBox="0 0 47.53666415730337 66.8367" height="66.8367" width="47.53666415730337"><g transform="matrix(1,0,0,1,0,0)"><svg width="47.53666415730337" viewBox="-0.10000000000000009 -42 32.650000000000006 45.5" height="66.8367" data-palette-color="#000000"><path d="M3.65-0.55L2.9-11.75 4.75-11.75Q5.1-9.5 6.08-7.7 7.05-5.9 8.53-4.65 10-3.4 11.93-2.73 13.85-2.05 16.1-2.05L16.1-2.05Q19.8-2.05 21.95-3.8 24.1-5.55 24.1-8.55L24.1-8.55Q24.1-9.8 23.68-10.85 23.25-11.9 22.25-12.88 21.25-13.85 19.58-14.8 17.9-15.75 15.35-16.85L15.35-16.85Q12.25-18.2 10.15-19.45 8.05-20.7 6.8-22.05 5.55-23.4 5.03-24.93 4.5-26.45 4.5-28.4L4.5-28.4Q4.5-30.7 5.33-32.65 6.15-34.6 7.65-36.02 9.15-37.45 11.2-38.23 13.25-39 15.7-39L15.7-39Q17.9-39 19.8-38.3 21.7-37.6 23.65-36.05L23.65-36.05 24.95-38.3 26.1-38.3 26.65-28.35 24.8-28.35Q23.6-32.45 21.33-34.45 19.05-36.45 15.85-36.45L15.85-36.45Q12.8-36.45 11-34.95 9.2-33.45 9.2-30.9L9.2-30.9Q9.2-29.7 9.6-28.73 10-27.75 10.9-26.88 11.8-26 13.25-25.13 14.7-24.25 16.85-23.3L16.85-23.3Q20.55-21.65 23-20.23 25.45-18.8 26.9-17.38 28.35-15.95 28.95-14.38 29.55-12.8 29.55-10.85L29.55-10.85Q29.55-8.35 28.55-6.25 27.55-4.15 25.75-2.65 23.95-1.15 21.45-0.33 18.95 0.5 15.95 0.5L15.95 0.5Q13.1 0.5 10.83-0.3 8.55-1.1 6.2-3L6.2-3 4.8-0.55 3.65-0.55Z" opacity="1" transform="matrix(1,0,0,1,0,0)" fill="#000000" class="wordmark-text-0" data-fill-palette-color="primary" id="SvgjsPath1386" stroke-width="5" stroke="black" stroke-linejoin="round"></path></svg></g></svg></g></svg></g></svg></g></svg></g></svg></g></mask></defs></svg><rect width="154.5" height="154.5" fill="none" stroke="none" visibility="hidden"></rect></g></svg></g></svg>