{
  "accessors": [
    {
      "bufferView": 2,
      "componentType": 5126,
      "count": 5152,
      "max": [
        0.043254561722278595,
        0.014114121906459332,
        0.13626015186309814
      ],
      "min": [
        -0.04522287845611572,
        -0.013541802763938904,
        -1.7848654110252937e-08
      ],
      "type": "VEC3"
    },
    {
      "bufferView": 2,
      "byteOffset": 61824,
      "componentType": 5126,
      "count": 5152,
      "max": [
        1.0,
        1.0,
        1.0
      ],
      "min": [
        -1.0,
        -1.0,
        -1.0
      ],
      "type": "VEC3"
    },
    {
      "bufferView": 3,
      "componentType": 5126,
      "count": 5152,
      "max": [
        1.0,
        1.0,
        1.0,
        1.0
      ],
      "min": [
        -1.0,
        -1.0,
        -1.0,
        -1.0
      ],
      "type": "VEC4"
    },
    {
      "bufferView": 1,
      "componentType": 5126,
      "count": 5152,
      "max": [
        0.9962934851646423,
        1.9935646057128906
      ],
      "min": [
        0.0021845493465662003,
        0.005300197750329971
      ],
      "type": "VEC2"
    },
    {
      "bufferView": 1,
      "byteOffset": 41216,
      "componentType": 5126,
      "count": 5152,
      "max": [
        0.9962934851646423,
        1.9935646057128906
      ],
      "min": [
        0.0021845493465662003,
        0.005300197750329971
      ],
      "type": "VEC2"
    },
    {
      "bufferView": 1,
      "byteOffset": 82432,
      "componentType": 5126,
      "count": 5152,
      "max": [
        0.9962934851646423,
        1.9935646057128906
      ],
      "min": [
        0.0021845493465662003,
        0.005300197750329971
      ],
      "type": "VEC2"
    },
    {
      "bufferView": 0,
      "componentType": 5125,
      "count": 14823,
      "type": "SCALAR"
    },
    {
      "bufferView": 2,
      "byteOffset": 123648,
      "componentType": 5126,
      "count": 1364,
      "max": [
        0.031233392655849457,
        -0.00041918078204616904,
        0.05024973303079605
      ],
      "min": [
        -0.031232837587594986,
        -0.012047742493450642,
        -0.05024973303079605
      ],
      "type": "VEC3"
    },
    {
      "bufferView": 2,
      "byteOffset": 140016,
      "componentType": 5126,
      "count": 1364,
      "max": [
        1.0,
        1.0,
        1.0
      ],
      "min": [
        -1.0,
        -1.0,
        -1.0
      ],
      "type": "VEC3"
    },
    {
      "bufferView": 3,
      "byteOffset": 82432,
      "componentType": 5126,
      "count": 1364,
      "max": [
        1.0,
        1.0,
        1.0,
        1.0
      ],
      "min": [
        -1.0,
        -1.0,
        -1.0,
        -1.0
      ],
      "type": "VEC4"
    },
    {
      "bufferView": 1,
      "byteOffset": 123648,
      "componentType": 5126,
      "count": 1364,
      "max": [
        0.9904381036758423,
        1.6025466918945313
      ],
      "min": [
        0.01088083814829588,
        0.008146381936967373
      ],
      "type": "VEC2"
    },
    {
      "bufferView": 1,
      "byteOffset": 134560,
      "componentType": 5126,
      "count": 1364,
      "max": [
        0.9904381036758423,
        1.6025466918945313
      ],
      "min": [
        0.01088083814829588,
        0.008146381936967373
      ],
      "type": "VEC2"
    },
    {
      "bufferView": 1,
      "byteOffset": 145472,
      "componentType": 5126,
      "count": 1364,
      "max": [
        0.9904381036758423,
        1.6025466918945313
      ],
      "min": [
        0.01088083814829588,
        0.008146381936967373
      ],
      "type": "VEC2"
    },
    {
      "bufferView": 0,
      "byteOffset": 59292,
      "componentType": 5125,
      "count": 3870,
      "type": "SCALAR"
    },
    {
      "bufferView": 2,
      "byteOffset": 156384,
      "componentType": 5126,
      "count": 2328,
      "max": [
        0.030859461054205894,
        0.04101038724184036,
        0.021461740136146545
      ],
      "min": [
        -0.04101039096713066,
        -0.030859459191560745,
        -0.018631702288985252
      ],
      "type": "VEC3"
    },
    {
      "bufferView": 2,
      "byteOffset": 184320,
      "componentType": 5126,
      "count": 2328,
      "max": [
        0.9870203137397766,
        0.9870204329490662,
        0.9915936589241028
      ],
      "min": [
        -0.9870204925537109,
        -0.9870201945304871,
        -0.9915933012962341
      ],
      "type": "VEC3"
    },
    {
      "bufferView": 3,
      "byteOffset": 104256,
      "componentType": 5126,
      "count": 2328,
      "max": [
        0.9817551970481873,
        0.9968011975288391,
        0.9396929740905762,
        1.0
      ],
      "min": [
        -0.9968013167381287,
        -0.9817549586296082,
        -0.9396932721138,
        -1.0
      ],
      "type": "VEC4"
    },
    {
      "bufferView": 1,
      "byteOffset": 156384,
      "componentType": 5126,
      "count": 2328,
      "max": [
        0.9827409386634827,
        1.9778797626495361
      ],
      "min": [
        0.016672072932124138,
        0.024540139362215996
      ],
      "type": "VEC2"
    },
    {
      "bufferView": 1,
      "byteOffset": 175008,
      "componentType": 5126,
      "count": 2328,
      "max": [
        0.9827409386634827,
        1.9778797626495361
      ],
      "min": [
        0.016672072932124138,
        0.024540139362215996
      ],
      "type": "VEC2"
    },
    {
      "bufferView": 1,
      "byteOffset": 193632,
      "componentType": 5126,
      "count": 2328,
      "max": [
        0.9827409386634827,
        1.9778797626495361
      ],
      "min": [
        0.016672072932124138,
        0.024540139362215996
      ],
      "type": "VEC2"
    },
    {
      "bufferView": 0,
      "byteOffset": 74772,
      "componentType": 5125,
      "count": 10368,
      "type": "SCALAR"
    },
    {
      "bufferView": 2,
      "byteOffset": 212256,
      "componentType": 5126,
      "count": 9669,
      "max": [
        0.2153903990983963,
        0.19247078895568848,
        0.16831962764263153
      ],
      "min": [
        -0.21857689321041107,
        -0.19013769924640656,
        -0.019546782597899437
      ],
      "type": "VEC3"
    },
    {
      "bufferView": 2,
      "byteOffset": 328284,
      "componentType": 5126,
      "count": 9669,
      "max": [
        1.0,
        1.0,
        1.0
      ],
      "min": [
        -1.0,
        -1.0,
        -1.0
      ],
      "type": "VEC3"
    },
    {
      "bufferView": 3,
      "byteOffset": 141504,
      "componentType": 5126,
      "count": 9669,
      "max": [
        1.0,
        0.999986469745636,
        1.0,
        1.0
      ],
      "min": [
        -0.9999668598175049,
        -1.0,
        -1.0,
        -1.0
      ],
      "type": "VEC4"
    },
    {
      "bufferView": 1,
      "byteOffset": 212256,
      "componentType": 5126,
      "count": 9669,
      "max": [
        0.9961028099060059,
        1.991896629333496
      ],
      "min": [
        0.007040444761514664,
        0.006802383344620466
      ],
      "type": "VEC2"
    },
    {
      "bufferView": 1,
      "byteOffset": 289608,
      "componentType": 5126,
      "count": 9669,
      "max": [
        0.9961028099060059,
        1.991896629333496
      ],
      "min": [
        0.007040444761514664,
        0.006802383344620466
      ],
      "type": "VEC2"
    },
    {
      "bufferView": 1,
      "byteOffset": 366960,
      "componentType": 5126,
      "count": 9669,
      "max": [
        0.9961028099060059,
        1.991896629333496
      ],
      "min": [
        0.007040444761514664,
        0.006802383344620466
      ],
      "type": "VEC2"
    },
    {
      "bufferView": 0,
      "byteOffset": 116244,
      "componentType": 5125,
      "count": 41262,
      "type": "SCALAR"
    },
    {
      "bufferView": 2,
      "byteOffset": 444312,
      "componentType": 5126,
      "count": 453,
      "max": [
        0.06926318258047104,
        0.004910535644739866,
        0.053566377609968185
      ],
      "min": [
        -0.0007600245880894363,
        -0.00557831022888422,
        -0.056914109736680984
      ],
      "type": "VEC3"
    },
    {
      "bufferView": 2,
      "byteOffset": 449748,
      "componentType": 5126,
      "count": 453,
      "max": [
        1.0,
        1.0,
        1.0
      ],
      "min": [
        -1.0,
        -1.0,
        -1.0
      ],
      "type": "VEC3"
    },
    {
      "bufferView": 3,
      "byteOffset": 296208,
      "componentType": 5126,
      "count": 453,
      "max": [
        1.0,
        1.0,
        1.0,
        1.0
      ],
      "min": [
        -1.0,
        -1.0,
        -1.0,
        -1.0
      ],
      "type": "VEC4"
    },
    {
      "bufferView": 1,
      "byteOffset": 444312,
      "componentType": 5126,
      "count": 453,
      "max": [
        0.9734259843826294,
        0.9892841577529907
      ],
      "min": [
        0.005686087999492884,
        0.005300197750329971
      ],
      "type": "VEC2"
    },
    {
      "bufferView": 1,
      "byteOffset": 447936,
      "componentType": 5126,
      "count": 453,
      "max": [
        0.9734259843826294,
        0.9892841577529907
      ],
      "min": [
        0.005686087999492884,
        0.005300197750329971
      ],
      "type": "VEC2"
    },
    {
      "bufferView": 1,
      "byteOffset": 451560,
      "componentType": 5126,
      "count": 453,
      "max": [
        0.9734259843826294,
        0.9892841577529907
      ],
      "min": [
        0.005686087999492884,
        0.005300197750329971
      ],
      "type": "VEC2"
    },
    {
      "bufferView": 0,
      "byteOffset": 281292,
      "componentType": 5125,
      "count": 1278,
      "type": "SCALAR"
    },
    {
      "bufferView": 2,
      "byteOffset": 455184,
      "componentType": 5126,
      "count": 62,
      "max": [
        0.043092597275972366,
        -0.003206296358257532,
        0.03348095715045929
      ],
      "min": [
        0.017585549503564835,
        -0.005571648012846708,
        -0.03184300661087036
      ],
      "type": "VEC3"
    },
    {
      "bufferView": 2,
      "byteOffset": 455928,
      "componentType": 5126,
      "count": 62,
      "max": [
        0.979863166809082,
        1.0,
        0.9798625111579895
      ],
      "min": [
        -0.9798635840415955,
        -0.9728209376335144,
        -0.9798644185066223
      ],
      "type": "VEC3"
    },
    {
      "bufferView": 3,
      "byteOffset": 303456,
      "componentType": 5126,
      "count": 62,
      "max": [
        0.979862630367279,
        0.3932388722896576,
        1.0,
        1.0
      ],
      "min": [
        -0.9798644185066223,
        -0.3933629095554352,
        -0.9798631072044373,
        -1.0
      ],
      "type": "VEC4"
    },
    {
      "bufferView": 1,
      "byteOffset": 455184,
      "componentType": 5126,
      "count": 62,
      "max": [
        0.6401990652084351,
        0.9067001342773438
      ],
      "min": [
        0.005686087999492884,
        0.08104980736970901
      ],
      "type": "VEC2"
    },
    {
      "bufferView": 1,
      "byteOffset": 455680,
      "componentType": 5126,
      "count": 62,
      "max": [
        0.6401990652084351,
        0.9067001342773438
      ],
      "min": [
        0.005686087999492884,
        0.08104980736970901
      ],
      "type": "VEC2"
    },
    {
      "bufferView": 1,
      "byteOffset": 456176,
      "componentType": 5126,
      "count": 62,
      "max": [
        0.6401990652084351,
        0.9067001342773438
      ],
      "min": [
        0.005686087999492884,
        0.08104980736970901
      ],
      "type": "VEC2"
    },
    {
      "bufferView": 0,
      "byteOffset": 286404,
      "componentType": 5125,
      "count": 204,
      "type": "SCALAR"
    }
  ],
  "asset": {
    "extras": {
      "author": "mohamedhussien (https://sketchfab.com/mohamedhussien)",
      "license": "CC-BY-4.0 (http://creativecommons.org/licenses/by/4.0/)",
      "source": "https://sketchfab.com/3d-models/walkman-01-4k-87be80a495904ff392842125b6cc81d1",
      "title": "Walkman_01_4k"
    },
    "generator": "Sketchfab-12.56.0",
    "version": "2.0"
  },
  "bufferViews": [
    {
      "buffer": 0,
      "byteLength": 287220,
      "name": "floatBufferViews",
      "target": 34963
    },
    {
      "buffer": 0,
      "byteLength": 456672,
      "byteOffset": 287220,
      "byteStride": 8,
      "name": "floatBufferViews",
      "target": 34962
    },
    {
      "buffer": 0,
      "byteLength": 456672,
      "byteOffset": 743892,
      "byteStride": 12,
      "name": "floatBufferViews",
      "target": 34962
    },
    {
      "buffer": 0,
      "byteLength": 304448,
      "byteOffset": 1200564,
      "byteStride": 16,
      "name": "floatBufferViews",
      "target": 34962
    }
  ],
  "buffers": [
    {
      "byteLength": 1505012,
      "uri": "scene.bin"
    }
  ],
  "images": [
    {
      "uri": "textures/Walkman_01_body_baseColor.jpeg"
    },
    {
      "uri": "textures/Walkman_01_body_metallicRoughness.png"
    },
    {
      "uri": "textures/Walkman_01_body_normal.png"
    },
    {
      "uri": "textures/Walkman_01_tape_baseColor.jpeg"
    },
    {
      "uri": "textures/Walkman_01_tape_metallicRoughness.png"
    },
    {
      "uri": "textures/Walkman_01_tape_normal.png"
    },
    {
      "uri": "textures/Walkman_01_foam_baseColor.jpeg"
    },
    {
      "uri": "textures/Walkman_01_foam_metallicRoughness.png"
    },
    {
      "uri": "textures/Walkman_01_foam_normal.png"
    },
    {
      "uri": "textures/Walkman_01_headphones_baseColor.jpeg"
    },
    {
      "uri": "textures/Walkman_01_headphones_metallicRoughness.png"
    },
    {
      "uri": "textures/Walkman_01_headphones_normal.png"
    }
  ],
  "materials": [
    {
      "doubleSided": true,
      "name": "Walkman_01_body",
      "normalTexture": {
        "index": 2
      },
      "pbrMetallicRoughness": {
        "baseColorTexture": {
          "index": 0
        },
        "metallicRoughnessTexture": {
          "index": 1
        }
      }
    },
    {
      "doubleSided": true,
      "name": "Walkman_01_tape",
      "normalTexture": {
        "index": 5
      },
      "occlusionTexture": {
        "index": 4
      },
      "pbrMetallicRoughness": {
        "baseColorTexture": {
          "index": 3
        },
        "metallicRoughnessTexture": {
          "index": 4
        }
      }
    },
    {
      "doubleSided": true,
      "name": "Walkman_01_foam",
      "normalTexture": {
        "index": 8
      },
      "pbrMetallicRoughness": {
        "baseColorTexture": {
          "index": 6
        },
        "metallicFactor": 0.0,
        "metallicRoughnessTexture": {
          "index": 7
        }
      }
    },
    {
      "doubleSided": true,
      "name": "Walkman_01_headphones",
      "normalTexture": {
        "index": 11
      },
      "pbrMetallicRoughness": {
        "baseColorTexture": {
          "index": 9
        },
        "metallicRoughnessTexture": {
          "index": 10
        }
      }
    },
    {
      "doubleSided": true,
      "name": "Walkman_01_body.001",
      "normalTexture": {
        "index": 2
      },
      "pbrMetallicRoughness": {
        "baseColorTexture": {
          "index": 0
        },
        "metallicRoughnessTexture": {
          "index": 1
        }
      }
    }
  ],
  "meshes": [
    {
      "name": "Walkman_01_body_Walkman_01_body_0",
      "primitives": [
        {
          "attributes": {
            "NORMAL": 1,
            "POSITION": 0,
            "TANGENT": 2,
            "TEXCOORD_0": 3,
            "TEXCOORD_1": 4,
            "TEXCOORD_2": 5
          },
          "indices": 6,
          "material": 0,
          "mode": 4
        }
      ]
    },
    {
      "name": "Walkman_01_tape_Walkman_01_tape_0",
      "primitives": [
        {
          "attributes": {
            "NORMAL": 8,
            "POSITION": 7,
            "TANGENT": 9,
            "TEXCOORD_0": 10,
            "TEXCOORD_1": 11,
            "TEXCOORD_2": 12
          },
          "indices": 13,
          "material": 1,
          "mode": 4
        }
      ]
    },
    {
      "name": "Walkman_01_foam_Walkman_01_foam_0",
      "primitives": [
        {
          "attributes": {
            "NORMAL": 15,
            "POSITION": 14,
            "TANGENT": 16,
            "TEXCOORD_0": 17,
            "TEXCOORD_1": 18,
            "TEXCOORD_2": 19
          },
          "indices": 20,
          "material": 2,
          "mode": 4
        }
      ]
    },
    {
      "name": "Walkman_01_headphones_Walkman_01_headphones_0",
      "primitives": [
        {
          "attributes": {
            "NORMAL": 22,
            "POSITION": 21,
            "TANGENT": 23,
            "TEXCOORD_0": 24,
            "TEXCOORD_1": 25,
            "TEXCOORD_2": 26
          },
          "indices": 27,
          "material": 3,
          "mode": 4
        }
      ]
    },
    {
      "name": "Walkman_01_flap_Walkman_01_body_0",
      "primitives": [
        {
          "attributes": {
            "NORMAL": 29,
            "POSITION": 28,
            "TANGENT": 30,
            "TEXCOORD_0": 31,
            "TEXCOORD_1": 32,
            "TEXCOORD_2": 33
          },
          "indices": 34,
          "material": 0,
          "mode": 4
        }
      ]
    },
    {
      "name": "Walkman_01_flap_Walkman_01_body.001_0",
      "primitives": [
        {
          "attributes": {
            "NORMAL": 36,
            "POSITION": 35,
            "TANGENT": 37,
            "TEXCOORD_0": 38,
            "TEXCOORD_1": 39,
            "TEXCOORD_2": 40
          },
          "indices": 41,
          "material": 4,
          "mode": 4
        }
      ]
    }
  ],
  "nodes": [
    {
      "children": [
        1
      ],
      "matrix": [
        1.0,
        0.0,
        0.0,
        0.0,
        0.0,
        2.220446049250313e-16,
        -1.0,
        0.0,
        0.0,
        1.0,
        2.220446049250313e-16,
        0.0,
        0.0,
        0.0,
        0.0,
        1.0
      ],
      "name": "Sketchfab_model"
    },
    {
      "children": [
        2
      ],
      "matrix": [
        0.009999999776482582,
        0.0,
        0.0,
        0.0,
        0.0,
        0.0,
        0.009999999776482582,
        0.0,
        0.0,
        -0.009999999776482582,
        0.0,
        0.0,
        0.0,
        0.0,
        0.0,
        1.0
      ],
      "name": "Walkman_01_4k.fbx"
    },
    {
      "children": [
        3,
        5,
        7,
        9,
        11
      ],
      "name": "RootNode"
    },
    {
      "children": [
        4
      ],
      "matrix": [
        100.0,
        0.0,
        0.0,
        0.0,
        0.0,
        -1.629206793918314e-05,
        -99.99999999999868,
        0.0,
        0.0,
        99.99999999999868,
        -1.629206793918314e-05,
        0.0,
        0.0,
        0.0,
        0.0,
        1.0
      ],
      "name": "Walkman_01_body"
    },
    {
      "mesh": 0,
      "name": "Walkman_01_body_Walkman_01_body_0"
    },
    {
      "children": [
        6
      ],
      "matrix": [
        100.0,
        0.0,
        0.0,
        0.0,
        -0.0,
        -1.629206793918314e-05,
        -99.99999999999868,
        0.0,
        0.0,
        99.99999999999868,
        -1.629206793918314e-05,
        0.0,
        -0.8743704557418823,
        5.7381272315979,
        0.10394507646560669,
        1.0
      ],
      "name": "Walkman_01_tape"
    },
    {
      "mesh": 1,
      "name": "Walkman_01_tape_Walkman_01_tape_0"
    },
    {
      "children": [
        8
      ],
      "matrix": [
        100.0,
        0.0,
        0.0,
        0.0,
        0.0,
        -1.629206793918314e-05,
        -99.99999999999868,
        0.0,
        0.0,
        99.99999999999868,
        -1.629206793918314e-05,
        0.0,
        5.366499900817871,
        1.939903736114502,
        6.930011749267578,
        1.0
      ],
      "name": "Walkman_01_foam"
    },
    {
      "mesh": 2,
      "name": "Walkman_01_foam_Walkman_01_foam_0"
    },
    {
      "children": [
        10
      ],
      "matrix": [
        100.0,
        0.0,
        0.0,
        0.0,
        0.0,
        -1.629206793918314e-05,
        -99.99999999999868,
        0.0,
        0.0,
        99.99999999999868,
        -1.629206793918314e-05,
        0.0,
        5.366499900817871,
        1.939903736114502,
        6.930012226104736,
        1.0
      ],
      "name": "Walkman_01_headphones"
    },
    {
      "mesh": 3,
      "name": "Walkman_01_headphones_Walkman_01_headphones_0"
    },
    {
      "children": [
        12,
        13
      ],
      "matrix": [
        100.0,
        0.0,
        0.0,
        0.0,
        -0.0,
        -1.629206793918314e-05,
        -99.99999999999868,
        0.0,
        0.0,
        99.99999999999868,
        -1.629206793918314e-05,
        0.0,
        -4.387936115264893,
        5.691410541534424,
        0.797015905380249,
        1.0
      ],
      "name": "Walkman_01_flap"
    },
    {
      "mesh": 4,
      "name": "Walkman_01_flap_Walkman_01_body_0"
    },
    {
      "mesh": 5,
      "name": "Walkman_01_flap_Walkman_01_body.001_0"
    }
  ],
  "samplers": [
    {
      "magFilter": 9729,
      "minFilter": 9987,
      "wrapS": 10497,
      "wrapT": 10497
    }
  ],
  "scene": 0,
  "scenes": [
    {
      "name": "Sketchfab_Scene",
      "nodes": [
        0
      ]
    }
  ],
  "textures": [
    {
      "sampler": 0,
      "source": 0
    },
    {
      "sampler": 0,
      "source": 1
    },
    {
      "sampler": 0,
      "source": 2
    },
    {
      "sampler": 0,
      "source": 3
    },
    {
      "sampler": 0,
      "source": 4
    },
    {
      "sampler": 0,
      "source": 5
    },
    {
      "sampler": 0,
      "source": 6
    },
    {
      "sampler": 0,
      "source": 7
    },
    {
      "sampler": 0,
      "source": 8
    },
    {
      "sampler": 0,
      "source": 9
    },
    {
      "sampler": 0,
      "source": 10
    },
    {
      "sampler": 0,
      "source": 11
    }
  ]
}
